<svg version="1" xmlns="http://www.w3.org/2000/svg" width="1200" height="1200" viewBox="0 0 900.000000 900.000000"><path d="M172.2 193.6v7.4l12.8-.1c14.4 0 22.5 1.2 31.4 4.6 18.1 6.9 26.9 16.2 29 30.8.4 2.7 1 5.9 1.4 7 1 3.5 1.2 400.3.1 408.7-2.3 18.7-5.8 28.9-12.1 34.6-12 11-23.4 14.5-47.8 14.8l-14.5.2-.2 7.2-.2 7.2H398v-14.5l-11.7-.1c-14.9 0-20.6-.8-29.4-3.9-14-4.9-23.9-12.3-28-20.9-2.3-4.9-2.2-4.9-3.3-12.1-.4-2.8-1-6.4-1.3-8-1-4.6-1.5-205.1-.6-204.1.4.4 29.3 29 64.2 63.4 134.6 133.1 138.5 137 142 144.2 3.7 7.7 5 16.9 3.1 22.5-1.6 4.8-8.7 12-14.3 14.4-5.5 2.4-13.4 4-21.2 4.4l-6 .4-.1 7.1-.1 7.2 126.1-.2 126.1-.3v-6c.1-8.1-.1-8.5-4.5-8.5-4.6 0-17.8-2.4-27.8-5.1-22.7-6-50.6-20.7-70.9-37.3-12.9-10.5-17.4-14.4-29.7-25.6-5.5-5-55.1-54.2-168.8-167.3l-43.6-43.5 40.6-40.5c22.4-22.3 59.4-59.4 82.2-82.4 22.8-23 44-43.9 47-46.4 3-2.6 7.8-6.5 10.5-8.9 10.2-8.6 16.5-13.3 27.4-20.4 14-9.1 35.5-18.8 44.6-20.1 1.7-.3 4.1-.7 5.5-1 1.4-.3 6-.8 10.3-1.2l7.7-.6v-14.5l-97.4-.1h-97.4l-.1 7.4-.1 7.5 10.7-.1c20.1 0 30.1 4 35.4 14 1.8 3.5 2.1 5.3 1.7 11.1-.9 12.6-7.7 23.8-29.2 48.5-7.9 9.2-65.4 66.6-82 82-7.2 6.6-15.7 14.6-19.1 17.7-3.3 3.1-7 6.5-8.2 7.5-1.1 1-6.9 6.4-12.9 11.9-6 5.6-12.1 11.2-13.5 12.5-7.5 6.8-28.7 26.5-35.4 32.9l-3.6 3.5.2-94c.1-51.7.5-96.9 1-100.5 1.7-12.4 1.8-13.5 2.7-16.5 4.6-15.5 18.8-25.5 42.4-30 1.3-.3 8.2-.5 15.5-.6l13.3-.1v-14.7H285.1l-112.9.1v7.4z"/></svg>